<svg width="25" height="19" viewBox="0 0 25 19" fill="none" xmlns="http://www.w3.org/2000/svg">
<path d="M2.83333 2.75L12.7762 9.5L22.1666 2.75M23.375 5.22495V13.7749C23.375 15.0351 23.3753 15.6652 23.1119 16.1465C22.8802 16.5699 22.51 16.914 22.0552 17.1297C21.5383 17.375 20.862 17.375 19.5086 17.375H5.4919C4.13844 17.375 3.46121 17.375 2.94425 17.1297C2.48953 16.914 2.12009 16.5699 1.8884 16.1465C1.625 15.6652 1.625 15.0351 1.625 13.7749V5.22495C1.625 3.96483 1.625 3.33485 1.8884 2.85355C2.12009 2.43018 2.48953 2.08595 2.94425 1.87024C3.46121 1.625 4.13844 1.625 5.4919 1.625H19.5086C20.862 1.625 21.5383 1.625 22.0552 1.87024C22.51 2.08595 22.8802 2.43018 23.1119 2.85355C23.3753 3.33485 23.375 3.96483 23.375 5.22495Z" stroke="white" stroke-width="2" stroke-linecap="round" stroke-linejoin="round"/>
</svg>
