<svg width="29" height="28" viewBox="0 0 29 28" fill="none" xmlns="http://www.w3.org/2000/svg">
<path d="M7.90218 12.3635C9.62108 15.6063 12.3904 18.2531 15.7685 19.9146L18.3946 17.3938C18.7169 17.0844 19.1944 16.9812 19.6122 17.1187C20.9491 17.5427 22.3935 17.7719 23.8736 17.7719C24.5302 17.7719 25.0673 18.2875 25.0673 18.9177V22.9167C25.0673 23.5469 24.5302 24.0625 23.8736 24.0625C12.665 24.0625 3.58105 15.3427 3.58105 4.58333C3.58105 3.95312 4.11821 3.4375 4.77474 3.4375H8.95262C9.60915 3.4375 10.1463 3.95312 10.1463 4.58333C10.1463 6.01562 10.385 7.39063 10.8267 8.67396C10.958 9.075 10.8625 9.52188 10.5283 9.84271L7.90218 12.3635Z" fill="white"/>
</svg>
