<svg width="20" height="21" viewBox="0 0 20 21" fill="none" xmlns="http://www.w3.org/2000/svg">
<path d="M13.7071 12.622C13.3166 12.2315 12.6834 12.2315 12.2929 12.622C11.9024 13.0125 11.9024 13.6457 12.2929 14.0362L13.7071 12.622ZM18.2929 20.0362C18.6834 20.4267 19.3166 20.4267 19.7071 20.0362C20.0976 19.6457 20.0976 19.0125 19.7071 18.622L18.2929 20.0362ZM8 14.3291C4.68629 14.3291 2 11.6428 2 8.3291H0C0 12.7474 3.58172 16.3291 8 16.3291V14.3291ZM2 8.3291C2 5.01539 4.68629 2.3291 8 2.3291V0.329102C3.58172 0.329102 0 3.91082 0 8.3291H2ZM8 2.3291C11.3137 2.3291 14 5.01539 14 8.3291H16C16 3.91082 12.4183 0.329102 8 0.329102V2.3291ZM14 8.3291C14 11.6428 11.3137 14.3291 8 14.3291V16.3291C12.4183 16.3291 16 12.7474 16 8.3291H14ZM12.2929 14.0362L18.2929 20.0362L19.7071 18.622L13.7071 12.622L12.2929 14.0362Z" fill="black" fill-opacity="0.74"/>
</svg>
