<svg width="25" height="17" viewBox="0 0 25 17" fill="none" xmlns="http://www.w3.org/2000/svg">
<path d="M12.5 16.9984C10.4498 17.0232 8.42088 16.5934 6.5675 15.7418C5.13087 15.061 3.84082 14.1207 2.76625 12.9712C1.62804 11.7828 0.731834 10.3957 0.125 8.88336L0 8.49971L0.13125 8.11605C0.738519 6.60502 1.63279 5.21832 2.7675 4.02818C3.84168 2.87881 5.1313 1.93855 6.5675 1.2576C8.42089 0.406021 10.4498 -0.0237424 12.5 0.00101179C14.5501 -0.0236997 16.5791 0.406062 18.4325 1.2576C19.8692 1.93839 21.1592 2.87866 22.2338 4.02818C23.3741 5.21503 24.2706 6.60251 24.875 8.11605L25 8.49971L24.8688 8.88336C22.9078 13.8415 17.9677 17.0826 12.5 16.9984ZM12.5 2.42921C8.24484 2.2997 4.33927 4.70576 2.64625 8.49971C4.339 12.2939 8.24474 14.7001 12.5 14.5702C16.7551 14.6994 20.6604 12.2934 22.3537 8.49971C20.6629 4.70392 16.7559 2.29697 12.5 2.42921ZM12.5 12.142C10.6967 12.1536 9.13671 10.9247 8.77621 9.20846C8.4157 7.49223 9.35534 5.76801 11.0192 5.09253C12.6831 4.41705 14.6065 4.97898 15.6107 6.43392C16.6148 7.88887 16.4192 9.83045 15.1437 11.0687C14.4454 11.755 13.4934 12.1415 12.5 12.142Z" fill="white"/>
</svg>
